HIERARCHY
ROOT Hips
{
	OFFSET 0.000000 100.481300 0.000000
	CHANNELS 6 Xposition Yposition Zposition Xrotation Yrotation Zrotation 
	JOINT Spine
	{
		OFFSET -0.279200 12.230698 -2.892100
		CHANNELS 3 Xrotation Yrotation Zrotation
		JOINT Spine1
		{
			OFFSET -0.232667 10.192268 -1.242267
			CHANNELS 3 Xrotation Yrotation Zrotation
			JOINT Spine1_split
			{
				OFFSET -0.232667 10.192268 -1.242267
				CHANNELS 3 Xrotation Yrotation Zrotation
				JOINT Spine2
				{
					OFFSET -0.232667 10.192268 -1.242267
					CHANNELS 3 Xrotation Yrotation Zrotation
					JOINT Neck
					{
						OFFSET -0.418800 17.814194 8.416900
						CHANNELS 3 Xrotation Yrotation Zrotation
						JOINT Head
						{
							OFFSET 0.000000 7.031097 3.806800
							CHANNELS 3 Xrotation Yrotation Zrotation
							JOINT HeadTop_End
							{
								OFFSET 0.000000 24.646606 12.978600
								CHANNELS 3 Xrotation Yrotation Zrotation
								End Site
								{
									OFFSET 0.000000 0.000000 0.000000
								}
							}
						}
					}
					JOINT LeftShoulder
					{
						OFFSET 8.476499 7.247704 -3.868750
						CHANNELS 3 Xrotation Yrotation Zrotation
						JOINT LeftShoulder_split
						{
							OFFSET 8.476499 7.247704 -3.868750
							CHANNELS 3 Xrotation Yrotation Zrotation
							JOINT LeftArm
							{
								OFFSET 9.308998 -2.777710 0.208600
								CHANNELS 3 Xrotation Yrotation Zrotation
								JOINT LeftForeArm
								{
									OFFSET 29.972298 0.000000 0.000000
									CHANNELS 3 Xrotation Yrotation Zrotation
									JOINT LeftHand
									{
										OFFSET 26.026505 0.000000 0.000000
										CHANNELS 3 Xrotation Yrotation Zrotation
										JOINT LeftHandThumb1
										{
											OFFSET 12.240501 -7.147949 9.207150
											CHANNELS 3 Xrotation Yrotation Zrotation
											JOINT LeftHandThumb2
											{
												OFFSET 4.138618 -2.389435 2.389433
												CHANNELS 3 Xrotation Yrotation Zrotation
												JOINT LeftHandThumb3
												{
													OFFSET 2.726913 -1.574387 1.574386
													CHANNELS 3 Xrotation Yrotation Zrotation
													JOINT LeftHandThumb4
													{
														OFFSET 3.941010 -2.275345 2.275342
														CHANNELS 3 Xrotation Yrotation Zrotation
														End Site
														{
															OFFSET 0.000000 0.000000 0.000000
														}
													}
												}
											}
										}
										JOINT LeftHandIndex1
										{
											OFFSET 24.424698 -1.985611 5.953459
											CHANNELS 3 Xrotation Yrotation Zrotation
											JOINT LeftHandIndex2
											{
												OFFSET 6.426697 0.000000 0.000000
												CHANNELS 3 Xrotation Yrotation Zrotation
												JOINT LeftHandIndex3
												{
													OFFSET 5.337898 0.000000 0.000000
													CHANNELS 3 Xrotation Yrotation Zrotation
													JOINT LeftHandIndex4
													{
														OFFSET 4.409401 0.000000 0.000000
														CHANNELS 3 Xrotation Yrotation Zrotation
														End Site
														{
															OFFSET 0.000000 0.000000 0.000000
														}
													}
												}
											}
										}
										JOINT LeftHandMiddle1
										{
											OFFSET 23.810104 0.000000 0.000000
											CHANNELS 3 Xrotation Yrotation Zrotation
											JOINT LeftHandMiddle2
											{
												OFFSET 7.176498 0.000000 0.000000
												CHANNELS 3 Xrotation Yrotation Zrotation
												JOINT LeftHandMiddle3
												{
													OFFSET 6.774902 0.000000 0.000000
													CHANNELS 3 Xrotation Yrotation Zrotation
													JOINT LeftHandMiddle4
													{
														OFFSET 5.403328 0.000000 0.000000
														CHANNELS 3 Xrotation Yrotation Zrotation
														End Site
														{
															OFFSET 0.000000 0.000000 0.000000
														}
													}
												}
											}
										}
										JOINT LeftHandRing1
										{
											OFFSET 22.908401 -0.839279 -6.020567
											CHANNELS 3 Xrotation Yrotation Zrotation
											JOINT LeftHandRing2
											{
												OFFSET 6.337502 0.000000 0.000000
												CHANNELS 3 Xrotation Yrotation Zrotation
												JOINT LeftHandRing3
												{
													OFFSET 5.779297 0.000000 0.000000
													CHANNELS 3 Xrotation Yrotation Zrotation
													JOINT LeftHandRing4
													{
														OFFSET 4.965698 0.000000 0.000000
														CHANNELS 3 Xrotation Yrotation Zrotation
														End Site
														{
															OFFSET 0.000000 0.000000 0.000000
														}
													}
												}
											}
										}
										JOINT LeftHandPinky1
										{
											OFFSET 20.037003 -1.530319 -10.950146
											CHANNELS 3 Xrotation Yrotation Zrotation
											JOINT LeftHandPinky2
											{
												OFFSET 5.254700 0.000000 0.000000
												CHANNELS 3 Xrotation Yrotation Zrotation
												JOINT LeftHandPinky3
												{
													OFFSET 4.810204 0.000000 0.000000
													CHANNELS 3 Xrotation Yrotation Zrotation
													JOINT LeftHandPinky4
													{
														OFFSET 3.647202 0.000000 0.000000
														CHANNELS 3 Xrotation Yrotation Zrotation
														End Site
														{
															OFFSET 0.000000 0.000000 0.000000
														}
													}
												}
											}
										}
									}
								}
							}
						}
					}
					JOINT RightShoulder
					{
						OFFSET -7.570500 7.247704 -3.868750
						CHANNELS 3 Xrotation Yrotation Zrotation
						JOINT RightShoulder_split
						{
							OFFSET -7.570500 7.247704 -3.868750
							CHANNELS 3 Xrotation Yrotation Zrotation
							JOINT RightArm
							{
								OFFSET -9.308998 -2.777710 0.208500
								CHANNELS 3 Xrotation Yrotation Zrotation
								JOINT RightForeArm
								{
									OFFSET -29.972300 0.000000 0.000000
									CHANNELS 3 Xrotation Yrotation Zrotation
									JOINT RightHand
									{
										OFFSET -26.026505 0.000000 0.000000
										CHANNELS 3 Xrotation Yrotation Zrotation
										JOINT RightHandThumb1
										{
											OFFSET -12.240601 -7.148026 9.207092
											CHANNELS 3 Xrotation Yrotation Zrotation
											JOINT RightHandThumb2
											{
												OFFSET -4.138618 -2.389435 2.389433
												CHANNELS 3 Xrotation Yrotation Zrotation
												JOINT RightHandThumb3
												{
													OFFSET -2.726974 -1.574417 1.574421
													CHANNELS 3 Xrotation Yrotation Zrotation
													JOINT RightHandThumb4
													{
														OFFSET -3.941010 -2.275345 2.275343
														CHANNELS 3 Xrotation Yrotation Zrotation
														End Site
														{
															OFFSET 0.000000 0.000000 0.000000
														}
													}
												}
											}
										}
										JOINT RightHandIndex1
										{
											OFFSET -24.424698 -1.985657 5.953444
											CHANNELS 3 Xrotation Yrotation Zrotation
											JOINT RightHandIndex2
											{
												OFFSET -6.426697 0.000000 0.000000
												CHANNELS 3 Xrotation Yrotation Zrotation
												JOINT RightHandIndex3
												{
													OFFSET -5.337898 0.000000 0.000000
													CHANNELS 3 Xrotation Yrotation Zrotation
													JOINT RightHandIndex4
													{
														OFFSET -4.409401 0.000000 0.000000
														CHANNELS 3 Xrotation Yrotation Zrotation
														End Site
														{
															OFFSET 0.000000 0.000000 0.000000
														}
													}
												}
											}
										}
										JOINT RightHandMiddle1
										{
											OFFSET -23.810097 0.000000 0.000000
											CHANNELS 3 Xrotation Yrotation Zrotation
											JOINT RightHandMiddle2
											{
												OFFSET -7.176498 0.000000 0.000000
												CHANNELS 3 Xrotation Yrotation Zrotation
												JOINT RightHandMiddle3
												{
													OFFSET -6.774902 0.000000 0.000000
													CHANNELS 3 Xrotation Yrotation Zrotation
													JOINT RightHandMiddle4
													{
														OFFSET -5.403328 0.000000 0.000000
														CHANNELS 3 Xrotation Yrotation Zrotation
														End Site
														{
															OFFSET 0.000000 0.000000 0.000000
														}
													}
												}
											}
										}
										JOINT RightHandRing1
										{
											OFFSET -22.908302 -0.839325 -6.020576
											CHANNELS 3 Xrotation Yrotation Zrotation
											JOINT RightHandRing2
											{
												OFFSET -6.337502 0.000000 0.000000
												CHANNELS 3 Xrotation Yrotation Zrotation
												JOINT RightHandRing3
												{
													OFFSET -5.779297 0.000000 0.000000
													CHANNELS 3 Xrotation Yrotation Zrotation
													JOINT RightHandRing4
													{
														OFFSET -4.965698 0.000000 0.000000
														CHANNELS 3 Xrotation Yrotation Zrotation
														End Site
														{
															OFFSET 0.000000 0.000000 0.000000
														}
													}
												}
											}
										}
										JOINT RightHandPinky1
										{
											OFFSET -20.037003 -1.530334 -10.950259
											CHANNELS 3 Xrotation Yrotation Zrotation
											JOINT RightHandPinky2
											{
												OFFSET -5.254700 0.000000 0.000000
												CHANNELS 3 Xrotation Yrotation Zrotation
												JOINT RightHandPinky3
												{
													OFFSET -4.810204 0.000000 0.000000
													CHANNELS 3 Xrotation Yrotation Zrotation
													JOINT RightHandPinky4
													{
														OFFSET -3.647202 0.000000 0.000000
														CHANNELS 3 Xrotation Yrotation Zrotation
														End Site
														{
															OFFSET 0.000000 0.000000 0.000000
														}
													}
												}
											}
										}
									}
								}
							}
						}
					}
				}
			}
		}
	}
	JOINT LeftUpLeg
	{
		OFFSET 15.427100 -6.655098 0.678600
		CHANNELS 3 Xrotation Yrotation Zrotation
		JOINT LeftLeg
		{
			OFFSET 4.081073 -39.591068 13.024000
			CHANNELS 3 Xrotation Yrotation Zrotation
			JOINT LeftFoot
			{
				OFFSET -4.081074 -37.707932 -15.979700
				CHANNELS 3 Xrotation Yrotation Zrotation
				JOINT LeftToeBase
				{
					OFFSET 5.346399 -15.068900 20.645000
					CHANNELS 3 Xrotation Yrotation Zrotation
					JOINT LeftToe_End
					{
						OFFSET 2.754700 0.931300 11.300900
						CHANNELS 3 Xrotation Yrotation Zrotation
						End Site
						{
							OFFSET 0.000000 0.000000 0.000000
						}
					}
				}
			}
		}
	}
	JOINT RightUpLeg
	{
		OFFSET -15.569500 -6.655098 0.678600
		CHANNELS 3 Xrotation Yrotation Zrotation
		JOINT RightLeg
		{
			OFFSET -4.081825 -39.591045 13.023800
			CHANNELS 3 Xrotation Yrotation Zrotation
			JOINT RightFoot
			{
				OFFSET 4.081824 -37.707954 -15.979600
				CHANNELS 3 Xrotation Yrotation Zrotation
				JOINT RightToeBase
				{
					OFFSET -5.346400 -15.068900 20.645000
					CHANNELS 3 Xrotation Yrotation Zrotation
					JOINT RightToe_End
					{
						OFFSET -2.754700 0.931300 11.300900
						CHANNELS 3 Xrotation Yrotation Zrotation
						End Site
						{
							OFFSET 0.000000 0.000000 0.000000
						}
					}
				}
			}
		}
	}
}
MOTION
Frames: 5
Frame Time: 0.016667
-0.003836 74.367645 -0.357210 11.754898 -49.677667 11.771172 10.996920 2.942208 -2.515507 6.100716 5.566538 -4.284690 0.000000 0.000000 0.000000 -5.786909 6.328142 -3.046186 2.318649 9.363424 -0.265732 -4.146877 23.161860 -3.522971 -0.000001 -0.000000 -0.000001 -1.882852 -16.244768 -2.883350 0.000000 0.000000 0.000000 -10.641501 2.224941 -45.488356 -22.862388 -25.786245 -15.871722 2.491066 -2.511892 6.860466 18.457931 -9.513782 13.216577 -1.150193 11.255268 -8.400878 5.706535 8.483126 -0.820723 0.000001 -0.000001 0.000001 -1.232805 -5.771922 -0.192318 0.133967 -0.197639 -4.602075 0.055748 -0.448190 -7.568212 -0.000003 0.000000 0.000000 1.884746 4.663384 -4.597370 0.476672 -1.009844 -12.986442 0.628527 -1.346590 -16.553981 -0.000003 0.000000 -0.000002 3.024637 7.938944 -14.103444 -0.708063 -0.566190 -18.895747 -0.726384 -0.705013 -22.058427 0.000002 -0.000000 0.000000 2.010356 6.305990 -22.386519 -0.815375 -0.210759 -16.746483 -2.232638 0.018966 -34.673858 -0.000000 -0.000003 -0.000001 -5.080962 24.428088 1.493068 0.000000 0.000000 0.000000 6.647391 -34.818549 57.612933 -21.031993 44.833813 19.961689 -0.087233 35.608498 7.474270 55.149567 18.649572 -29.698301 -0.442557 -14.180528 7.313128 21.667008 -29.244541 9.142411 0.000000 0.000001 -0.000000 5.673414 7.585054 36.844171 1.050463 3.824479 68.900203 0.499554 3.026043 62.196447 0.000002 0.000001 0.000000 -0.125673 1.886095 45.000732 -1.169017 3.204677 68.417670 -0.936389 1.813642 41.107535 -0.000000 0.000000 0.000001 -5.312000 1.216650 58.508801 -0.745190 1.667573 48.011271 -0.816475 1.840651 53.666552 -0.000002 -0.000001 -0.000002 -7.756764 -9.376434 47.264014 -0.526083 1.541564 45.600501 -0.508165 0.803462 24.986610 0.000005 0.000000 -0.000002 -67.586634 25.164374 42.947311 43.279934 -19.356823 3.336747 8.271392 0.637619 -12.352655 -0.971153 -6.109424 0.596050 -0.000000 0.000001 0.000000 -29.726804 0.631914 -30.303002 49.963145 5.852315 -4.864600 -26.770995 -5.250375 27.155381 0.528349 2.969995 1.471348 -0.000000 0.000001 -0.000000 
-0.034309 74.354568 -0.362922 11.738084 -49.818164 11.775929 10.995173 2.995088 -2.531180 6.133758 5.604290 -4.247332 0.000000 0.000000 0.000000 -5.764546 6.336161 -3.016234 2.313013 9.402308 -0.496346 -4.187045 23.085213 -3.410672 -0.000001 -0.000000 0.000000 -1.902991 -16.283497 -3.000822 0.000000 0.000000 0.000000 -10.665542 2.222337 -45.395128 -22.827814 -25.744969 -15.838649 2.461425 -2.435298 6.885875 18.464896 -9.494852 13.214779 -1.134539 11.275821 -8.403353 5.716611 8.500869 -0.821539 0.000000 0.000001 -0.000005 -1.233066 -5.735406 -0.262382 0.133853 -0.200948 -4.674388 0.054945 -0.451125 -7.636852 0.000001 0.000001 -0.000001 1.884284 4.658510 -4.668112 0.474432 -1.015909 -13.148141 0.626694 -1.350730 -16.622987 -0.000004 0.000001 0.000002 3.023528 7.934860 -14.172982 -0.709393 -0.572794 -19.056738 -0.727125 -0.707926 -22.125715 -0.000003 0.000002 0.000000 2.010015 6.304096 -22.455454 -0.816758 -0.219703 -16.906994 -2.232364 0.017902 -34.736939 0.000002 0.000000 -0.000001 -5.036444 24.265318 1.406465 0.000000 0.000000 0.000000 6.704552 -34.680313 57.476069 -20.413769 44.915423 19.709414 0.211634 35.320240 6.345766 55.149550 18.649584 -29.698298 -0.442542 -14.180555 7.313218 21.648305 -29.254674 9.095111 -0.000000 -0.000001 -0.000000 5.673403 7.585023 36.844120 1.050446 3.824501 68.900237 0.499539 3.026037 62.196454 -0.000001 -0.000000 0.000001 -0.125546 1.886258 45.000780 -1.169004 3.204643 68.417622 -0.934022 1.814876 41.107494 0.000000 -0.000000 0.000000 -5.312126 1.216708 58.508746 -0.743526 1.669641 48.011271 -0.816467 1.840555 53.666514 0.000001 -0.000000 -0.000002 -7.756773 -9.376473 47.263997 -0.524060 1.543648 45.600467 -0.507485 0.803908 24.986596 0.000002 0.000001 -0.000002 -67.490363 25.151289 43.043114 43.309198 -19.210611 3.384397 8.211299 0.656279 -12.467312 -1.043540 -6.349708 0.636138 0.000000 0.000002 0.000000 -29.747782 0.735844 -30.248169 50.019214 5.852404 -4.866237 -26.784356 -5.220486 27.133541 0.612553 2.963447 1.439382 0.000000 -0.000001 0.000000 
-0.064648 74.335510 -0.375867 11.591582 -49.954549 11.701810 11.015409 3.031782 -2.554108 6.210110 5.609800 -4.231201 0.000000 0.000000 0.000000 -5.697423 6.318253 -3.012863 2.193454 9.464197 -0.640307 -4.095898 23.049771 -3.380864 0.000001 0.000000 0.000000 -1.908070 -16.258767 -3.020663 0.000000 0.000000 0.000000 -10.687440 2.247404 -45.360031 -22.769670 -25.731440 -15.803255 2.450938 -2.428316 6.875493 18.484913 -9.440127 13.209263 -1.089339 11.335341 -8.410323 5.745642 8.552544 -0.824135 0.000005 0.000000 0.000000 -1.233508 -5.629209 -0.465556 0.133391 -0.210503 -4.883978 0.053112 -0.460261 -7.835759 -0.000005 -0.000001 -0.000001 1.883517 4.644737 -4.873347 0.467252 -1.037518 -13.616835 0.623328 -1.357841 -16.823290 0.000000 0.000003 0.000001 3.021425 7.923313 -14.374505 -0.715603 -0.596508 -19.523326 -0.729464 -0.715986 -22.320722 -0.000001 -0.000000 -0.000002 2.012094 6.297353 -22.655579 -0.821030 -0.245824 -17.372245 -2.235741 0.009478 -34.919882 -0.000001 -0.000003 -0.000002 -5.072081 24.344573 1.612732 0.000000 0.000000 0.000000 6.672745 -34.749636 56.881730 -18.584970 45.084019 18.881571 0.891891 34.215928 3.308616 55.149498 18.649616 -29.698267 -0.442558 -14.180578 7.313326 21.629537 -29.264769 9.047775 0.000000 0.000000 -0.000000 5.673404 7.585017 36.844130 1.050392 3.824497 68.900291 0.499593 3.025999 62.196447 -0.000002 0.000003 -0.000005 -0.125398 1.886433 45.000783 -1.169045 3.204635 68.417691 -0.931634 1.816048 41.107466 0.000002 -0.000000 -0.000001 -5.312268 1.216742 58.508807 -0.741755 1.671682 48.011145 -0.816503 1.840577 53.666558 0.000003 -0.000003 -0.000001 -7.756779 -9.376514 47.264028 -0.522045 1.545777 45.600406 -0.506841 0.804325 24.986594 -0.000000 0.000001 -0.000002 -67.319144 25.165106 43.085711 43.341891 -19.237040 3.439410 8.132825 0.669469 -12.577528 -1.053281 -6.219628 0.643507 -0.000000 0.000001 0.000000 -29.690078 0.822077 -30.228805 50.070829 5.886181 -4.863197 -26.742118 -5.180512 27.100457 0.552212 2.999110 1.361369 -0.000000 0.000001 -0.000000 
-0.095940 74.321442 -0.418821 11.510581 -50.135508 11.694679 11.024674 3.061232 -2.578754 6.262224 5.612152 -4.216225 0.000000 0.000000 0.000000 -5.653941 6.298714 -3.010385 2.178521 9.585921 -0.934681 -4.140471 23.001128 -3.228222 0.000000 -0.000000 -0.000000 -1.889326 -15.962408 -3.044853 0.000000 0.000000 0.000000 -10.743609 2.048039 -45.378957 -22.673236 -25.677857 -15.719286 2.461760 -2.430190 6.807740 18.516882 -9.352238 13.200242 -1.014992 11.429185 -8.416379 5.790252 8.636285 -0.824185 0.000000 -0.000001 0.000003 -1.230639 -5.459035 -0.790882 0.132213 -0.225667 -5.219949 0.050226 -0.475072 -8.154650 0.000002 -0.000002 0.000000 1.882256 4.622885 -5.202237 0.455169 -1.074110 -14.367971 0.618009 -1.369267 -17.144239 0.000002 0.000000 -0.000001 3.018058 7.905103 -14.697561 -0.726075 -0.634165 -20.270960 -0.733251 -0.728750 -22.633273 -0.000000 0.000001 0.000001 2.014190 6.287025 -22.976359 -0.828506 -0.287376 -18.117837 -2.241677 -0.004292 -35.213064 -0.000001 0.000000 -0.000001 -5.079896 24.138008 1.822010 0.000000 0.000000 0.000000 6.573136 -34.379539 55.764560 -14.830245 45.143292 17.007523 2.052966 32.012366 -1.966978 55.149519 18.649579 -29.698308 -0.442585 -14.180559 7.313393 21.610783 -29.274908 9.000458 -0.000000 0.000000 -0.000001 5.673398 7.585057 36.844124 1.050422 3.824495 68.900271 0.499586 3.026002 62.196454 -0.000003 0.000001 -0.000001 -0.125228 1.886614 45.000773 -1.169003 3.204675 68.417718 -0.929310 1.817321 41.107422 0.000001 -0.000001 0.000001 -5.312361 1.216853 58.508773 -0.740107 1.673730 48.011141 -0.816484 1.840518 53.666511 0.000001 0.000001 -0.000003 -7.756702 -9.376521 47.264031 -0.520061 1.547866 45.600324 -0.506198 0.804716 24.986582 0.000001 -0.000001 -0.000002 -67.153771 25.189278 43.158319 43.340265 -19.122923 3.515242 8.078498 0.664266 -12.733368 -1.121266 -6.315351 0.683246 0.000000 0.000000 0.000000 -29.716326 0.976071 -30.172849 50.165503 5.905668 -4.862171 -26.723774 -5.135593 27.045838 0.666954 2.972445 1.343016 0.000000 0.000002 0.000000 
-0.129045 74.310028 -0.464667 11.269057 -50.234402 11.643354 11.042578 3.084988 -2.613919 6.331282 5.599948 -4.228957 0.000000 0.000000 0.000000 -5.592462 6.271875 -3.037227 2.123667 9.689428 -1.179596 -4.049721 22.935634 -3.100422 -0.000001 -0.000000 -0.000000 -1.896885 -15.889937 -3.087225 0.000000 0.000000 0.000000 -10.739183 2.060709 -45.364245 -22.581789 -25.698809 -15.654599 2.485502 -2.423251 6.647026 18.557580 -9.232476 13.192362 -0.915178 11.555370 -8.424766 5.850204 8.748683 -0.824573 -0.000002 0.000001 -0.000001 -1.223559 -5.230814 -1.228092 0.130552 -0.246041 -5.671144 0.046348 -0.495024 -8.582869 0.000000 0.000002 -0.000001 1.880537 4.593758 -5.644047 0.438373 -1.123011 -15.377037 0.609871 -1.387888 -17.575349 -0.000004 -0.000001 0.000002 3.018445 7.879856 -15.132129 -0.741084 -0.684173 -21.275443 -0.740449 -0.750327 -23.052985 -0.000000 0.000003 0.000000 2.016118 6.267744 -23.406857 -0.839681 -0.342795 -19.119426 -2.249910 -0.022709 -35.606917 -0.000004 0.000001 -0.000002 -5.134573 24.848303 2.120641 0.000000 0.000000 0.000000 6.274984 -34.716158 53.957661 -9.547852 44.108436 14.324990 3.182589 29.069422 -8.558531 55.149526 18.649598 -29.698294 -0.442573 -14.180565 7.313460 21.592004 -29.284989 8.953126 -0.000001 0.000000 -0.000001 5.673416 7.585030 36.844144 1.050420 3.824509 68.900244 0.499602 3.026027 62.196413 -0.000002 -0.000002 0.000000 -0.125014 1.886756 45.000739 -1.169011 3.204698 68.417663 -0.926920 1.818504 41.107391 0.000001 -0.000000 0.000000 -5.312505 1.216871 58.508766 -0.738336 1.675775 48.011056 -0.816487 1.840549 53.666548 0.000002 -0.000000 0.000003 -7.756709 -9.376513 47.264018 -0.518019 1.549921 45.600255 -0.505527 0.805172 24.986584 -0.000001 -0.000001 -0.000001 -66.830491 25.277202 43.036363 43.295094 -19.064129 3.644615 8.035689 0.645199 -12.915292 -1.123556 -6.278455 0.685836 -0.000000 -0.000002 -0.000000 -29.662207 1.040316 -30.262301 50.262686 6.007744 -4.849266 -26.680695 -5.069998 26.954104 0.625078 2.940830 1.336919 0.000000 -0.000002 0.000000 
